<?xml version="1.0" encoding="UTF-8" standalone="no"?>
<!-- Created with Inkscape (http://www.inkscape.org/) -->

<svg
   width="116.2645mm"
   height="128.09985mm"
   viewBox="0 0 116.2645 128.09985"
   version="1.1"
   id="svg1"
   xml:space="preserve"
   inkscape:version="1.4 (e7c3feb100, 2024-10-09)"
   sodipodi:docname="logo_inkscape.svg"
   xmlns:inkscape="http://www.inkscape.org/namespaces/inkscape"
   xmlns:sodipodi="http://sodipodi.sourceforge.net/DTD/sodipodi-0.dtd"
   xmlns="http://www.w3.org/2000/svg"
   xmlns:svg="http://www.w3.org/2000/svg"><sodipodi:namedview
     id="namedview1"
     pagecolor="#ffffff"
     bordercolor="#000000"
     borderopacity="0.25"
     inkscape:showpageshadow="2"
     inkscape:pageopacity="0.0"
     inkscape:pagecheckerboard="0"
     inkscape:deskcolor="#d1d1d1"
     inkscape:document-units="mm"
     inkscape:zoom="1.6575867"
     inkscape:cx="185.51066"
     inkscape:cy="207.53062"
     inkscape:window-width="2880"
     inkscape:window-height="1800"
     inkscape:window-x="0"
     inkscape:window-y="0"
     inkscape:window-maximized="1"
     inkscape:current-layer="layer1"
     showgrid="false" /><defs
     id="defs1" /><g
     inkscape:label="Layer 1"
     inkscape:groupmode="layer"
     id="layer1"
     transform="translate(-76.091433,-126.95097)"><path
       style="fill:#ffffff;fill-opacity:1"
       d="m 76.093982,218.34161 c 0.04048,-0.18667 2.823298,-5.35097 6.184031,-11.47624 l 6.110429,-11.13683 1.246498,-0.1866 c 2.863117,-0.42857 7.618333,-1.97103 9.861069,-3.19858 0.587041,-0.32127 1.154081,-0.6028 1.260091,-0.62567 0.58508,-0.12571 6.19188,-3.82464 6.45685,-4.25967 0.10294,-0.16832 0.42776,-0.40773 0.72252,-0.53158 1.38816,-0.58347 1.16309,-0.0895 -3.85409,8.45891 l -4.917943,8.37935 -0.674977,-0.0414 c -2.909102,-0.17829 -5.315931,2.20777 -5.193587,5.14875 0.08714,2.09485 0.891231,3.11605 3.495984,4.43991 1.030348,0.52363 3.636393,-0.15647 4.798373,-1.25228 1.64102,-1.54758 1.75298,-4.69513 0.23474,-6.59861 -0.6313,-0.79149 -0.62994,-0.82097 0.08,-1.73608 0.39721,-0.512 3.0654,-4.98941 5.92927,-9.94979 l 5.20706,-9.01889 1.37482,0.79375 c 1.26023,0.7276 1.35075,0.83541 1.08619,1.29367 -0.4339,0.75153 -1.08045,4.31836 -1.32075,7.28629 -0.33738,4.1669 -0.0627,8.04417 0.84485,11.92647 l 0.37425,1.60072 -7.33329,12.56943 -7.33329,12.56942 -2.988065,-1.63937 c -3.40017,-1.86539 -3.837889,-2.35892 -3.32097,-3.74378 0.170419,-0.45657 0.497237,-1.40934 0.72626,-2.11729 0.229029,-0.70793 0.576408,-1.74469 0.771969,-2.30392 l 0.35554,-1.01679 -4.083538,-2.44135 c -4.576001,-3.94024 -6.947758,0.13395 -6.975014,0.18116 -2.253646,3.20947 -3.340047,2.35445 -6.263838,0.66077 -2.146282,-1.23916 -2.915181,-1.78574 -2.86137,-2.03391 z"
       id="use219"
       inkscape:transform-center-x="16.528598"
       inkscape:transform-center-y="17.775285"
       inkscape:tile-x0="3.744827e-07"
       inkscape:tile-y0="52.850592"
       sodipodi:nodetypes="cscsscccscssssssscssscccccsssccsscc"
       inkscape:tile-cx="36.293957"
       inkscape:tile-cy="59.095183"
       inkscape:tile-w="39.530716"
       inkscape:tile-h="48.039752" /><path
       style="fill:#ffffff;fill-opacity:1"
       d="m 76.093982,218.34161 c 0.04048,-0.18667 2.823298,-5.35097 6.184031,-11.47624 l 6.110429,-11.13683 1.246498,-0.1866 c 2.863117,-0.42857 7.618333,-1.97103 9.861069,-3.19858 0.587041,-0.32127 1.154081,-0.6028 1.260091,-0.62567 0.58508,-0.12571 6.19188,-3.82464 6.45685,-4.25967 0.10294,-0.16832 0.42776,-0.40773 0.72252,-0.53158 1.38816,-0.58347 1.16309,-0.0895 -3.85409,8.45891 l -4.917943,8.37935 -0.674977,-0.0414 c -2.909102,-0.17829 -5.315931,2.20777 -5.193587,5.14875 0.08714,2.09485 0.891231,3.11605 3.495984,4.43991 1.030348,0.52363 3.636393,-0.15647 4.798373,-1.25228 1.64102,-1.54758 1.75298,-4.69513 0.23474,-6.59861 -0.6313,-0.79149 -0.62994,-0.82097 0.08,-1.73608 0.39721,-0.512 3.0654,-4.98941 5.92927,-9.94979 l 5.20706,-9.01889 1.37482,0.79375 c 1.26023,0.7276 1.35075,0.83541 1.08619,1.29367 -0.4339,0.75153 -1.08045,4.31836 -1.32075,7.28629 -0.33738,4.1669 -0.0627,8.04417 0.84485,11.92647 l 0.37425,1.60072 -7.33329,12.56943 -7.33329,12.56942 -2.988065,-1.63937 c -3.40017,-1.86539 -3.837889,-2.35892 -3.32097,-3.74378 0.170419,-0.45657 0.497237,-1.40934 0.72626,-2.11729 0.229029,-0.70793 0.576408,-1.74469 0.771969,-2.30392 l 0.35554,-1.01679 -4.083538,-2.44135 c -4.576001,-3.94024 -6.947758,0.13395 -6.975014,0.18116 -2.253646,3.20947 -3.340047,2.35445 -6.263838,0.66077 -2.146282,-1.23916 -2.915181,-1.78574 -2.86137,-2.03391 z"
       id="use86"
       inkscape:transform-center-x="16.528598"
       inkscape:transform-center-y="17.775285"
       inkscape:tile-x0="3.744827e-07"
       inkscape:tile-y0="52.850592"
       sodipodi:nodetypes="cscsscccscssssssscssscccccsssccsscc" /><path
       style="fill:#ffffff;fill-opacity:1"
       d="m 81.481082,154.32946 c 0.181901,-0.0583 6.045725,-0.23044 13.03073,-0.38259 l 12.699988,-0.27663 0.78485,0.9862 c 1.80272,2.26525 5.51613,5.61215 7.70059,6.94064 0.57175,0.34776 1.09908,0.69807 1.17189,0.77844 0.40141,0.44384 6.40818,3.45001 6.91741,3.46196 0.19724,0.005 0.56698,0.16659 0.82162,0.35993 1.19938,0.91045 0.65906,0.96252 -9.25268,0.89172 l -9.7157,-0.0694 -0.30163,-0.60525 c -1.30015,-2.6085 -4.56995,-3.49984 -7.055743,-1.9234 -1.770624,1.12289 -2.252963,2.32985 -2.097083,5.24756 0.0617,1.15413 1.953703,3.07098 3.483693,3.52938 2.160753,0.64737 4.942593,-0.82944 5.831933,-3.09602 0.3698,-0.94246 0.39601,-0.95603 1.54349,-0.79875 0.64201,0.088 5.85366,0.16 11.58141,0.16 h 10.41411 l 1e-5,1.5875 c -1e-5,1.4552 -0.0481,1.58749 -0.57726,1.58751 -0.86779,-1e-5 -4.28003,1.22348 -6.97049,2.49934 -3.77733,1.79127 -6.9978,3.96778 -9.9062,6.6949 l -1.19914,1.12447 -14.552088,-0.0661 -14.552082,-0.0661 -0.0743,-3.40743 c -0.08461,-3.87732 0.12394,-4.50316 1.581724,-4.74793 0.480611,-0.0807 1.469143,-0.27405 2.196757,-0.42969 0.7276,-0.15562 1.79915,-0.37316 2.381238,-0.48341 l 1.058335,-0.20049 0.0725,-4.75712 c 1.124347,-5.93305 -3.589884,-5.94996 -3.644397,-5.94996 -3.906305,-0.34698 -3.709037,-1.71534 -3.704162,-5.09426 3e-6,-2.47831 0.08891,-3.41749 0.330733,-3.49497 z"
       id="use87"
       inkscape:transform-center-x="16.528598"
       inkscape:transform-center-y="17.775285"
       inkscape:tile-x0="3.744827e-07"
       inkscape:tile-y0="52.850592"
       sodipodi:nodetypes="cscsscccscssssssscssscccccsssccsscc" /><path
       style="fill:#ffffff;fill-opacity:1"
       d="m 139.61078,126.98875 c 0.14142,0.12839 3.22243,5.12053 6.8467,11.09365 l 6.58956,10.8602 -0.46165,1.1728 c -1.0604,2.69382 -2.1022,7.58318 -2.16048,10.13922 -0.0153,0.66903 -0.055,1.30087 -0.0882,1.40411 -0.18367,0.56955 0.2163,7.27465 0.46056,7.72163 0.0943,0.17331 0.13922,0.57432 0.0991,0.89151 -0.18878,1.49392 -0.50403,1.05202 -5.39859,-7.56719 l -4.79775,-8.44874 0.37334,-0.56385 c 1.60895,-2.43021 0.74598,-5.70761 -1.86216,-7.07215 -1.85776,-0.97196 -3.14419,-0.7862 -5.59306,0.80765 -0.96865,0.6305 -1.68269,3.22745 -1.31468,4.78166 0.51973,2.19495 3.18961,3.86569 5.59719,3.50259 1.0011,-0.15097 1.02595,-0.13506 1.46349,0.93733 0.2448,0.59999 2.78826,5.14941 5.65214,10.10979 l 5.20705,9.01889 -1.37481,0.79375 c -1.26024,0.7276 -1.39887,0.75208 -1.66345,0.29384 -0.43389,-0.75154 -3.19958,-3.09488 -5.64974,-4.78695 -3.43995,-2.37563 -6.9351,-4.07639 -10.75105,-5.23157 l -1.57339,-0.47625 -7.2188,-12.63553 -7.21879,-12.63553 2.91377,-1.76806 c 3.31556,-2.01193 3.96183,-2.14424 4.90269,-1.00415 0.31019,0.37587 0.97191,1.13529 1.4705,1.6876 0.49857,0.55231 1.22274,1.37153 1.60927,1.82051 l 0.70279,0.8163 4.15604,-2.31577 c 5.70035,-1.99281 3.35788,-6.08391 3.33062,-6.13112 -1.65266,-3.55645 -0.36899,-4.06979 2.55968,-5.75503 2.14628,-1.23915 3.00408,-1.63175 3.1921,-1.46106 z"
       id="use88"
       inkscape:transform-center-x="16.528598"
       inkscape:transform-center-y="17.775285"
       inkscape:tile-x0="3.744827e-07"
       inkscape:tile-y0="52.850592"
       sodipodi:nodetypes="cscsscccscssssssscssscccccsssccsscc" /><path
       style="fill:#ffffff;fill-opacity:1"
       d="m 192.35338,163.66019 c -0.0405,0.18667 -2.8233,5.35097 -6.18403,11.47624 l -6.11043,11.13683 -1.2465,0.1866 c -2.86312,0.42857 -7.61833,1.97103 -9.86107,3.19858 -0.58704,0.32127 -1.15408,0.6028 -1.26009,0.62567 -0.58508,0.12571 -6.19188,3.82464 -6.45685,4.25967 -0.10294,0.16832 -0.42776,0.40773 -0.72252,0.53158 -1.38816,0.58347 -1.16309,0.0895 3.85409,-8.45891 l 4.91794,-8.37935 0.67498,0.0414 c 2.9091,0.17829 5.31593,-2.20777 5.19359,-5.14875 -0.0871,-2.09485 -0.89123,-3.11605 -3.49599,-4.43991 -1.03035,-0.52363 -3.63639,0.15647 -4.79837,1.25228 -1.64102,1.54758 -1.75298,4.69513 -0.23474,6.59861 0.6313,0.79149 0.62994,0.82097 -0.08,1.73608 -0.39721,0.512 -3.0654,4.98941 -5.92927,9.94979 l -5.20706,9.01889 -1.37482,-0.79375 c -1.26023,-0.7276 -1.35075,-0.83541 -1.08619,-1.29367 0.4339,-0.75153 1.08045,-4.31836 1.32075,-7.28629 0.33738,-4.1669 0.0627,-8.04417 -0.84485,-11.92647 l -0.37425,-1.60072 7.33329,-12.56943 7.33329,-12.56942 2.98806,1.63937 c 3.40017,1.86539 3.83789,2.35892 3.32098,3.74378 -0.17042,0.45657 -0.49724,1.40934 -0.72627,2.11729 -0.22902,0.70793 -0.5764,1.74469 -0.77196,2.30392 l -0.35554,1.01679 4.08353,2.44135 c 4.57601,3.94024 6.94776,-0.13395 6.97502,-0.18116 2.25364,-3.20947 3.34005,-2.35445 6.26384,-0.66077 2.14628,1.23916 2.91518,1.78574 2.86137,2.03391 z"
       id="use89"
       inkscape:transform-center-x="16.528598"
       inkscape:transform-center-y="17.775285"
       inkscape:tile-x0="3.744827e-07"
       inkscape:tile-y0="52.850592"
       sodipodi:nodetypes="cscsscccscssssssscssscccccsssccsscc" /><path
       style="fill:#ffffff;fill-opacity:1"
       d="m 186.96628,227.67234 c -0.1819,0.0583 -6.04573,0.23044 -13.03073,0.38259 l -12.69999,0.27663 -0.78485,-0.9862 c -1.80272,-2.26525 -5.51613,-5.61215 -7.70059,-6.94064 -0.57175,-0.34776 -1.09908,-0.69807 -1.17189,-0.77844 -0.40141,-0.44384 -6.40818,-3.45001 -6.91741,-3.46196 -0.19724,-0.005 -0.56698,-0.16659 -0.82162,-0.35993 -1.19938,-0.91045 -0.65906,-0.96252 9.25268,-0.89172 l 9.7157,0.0694 0.30163,0.60525 c 1.30015,2.6085 4.56995,3.49984 7.05574,1.9234 1.77063,-1.12289 2.25297,-2.32985 2.09709,-5.24756 -0.0617,-1.15413 -1.95371,-3.07098 -3.4837,-3.52938 -2.16075,-0.64737 -4.94259,0.82944 -5.83193,3.09602 -0.3698,0.94246 -0.39601,0.95603 -1.54349,0.79875 -0.64201,-0.088 -5.85366,-0.16 -11.58141,-0.16 H 139.4074 l -1e-5,-1.5875 c 1e-5,-1.4552 0.0481,-1.58749 0.57726,-1.58751 0.86779,1e-5 4.28003,-1.22348 6.97049,-2.49934 3.77733,-1.79127 6.9978,-3.96778 9.9062,-6.6949 l 1.19914,-1.12447 14.55209,0.0661 14.55208,0.0661 0.0743,3.40743 c 0.0846,3.87732 -0.12394,4.50316 -1.58173,4.74793 -0.48061,0.0807 -1.46914,0.27405 -2.19675,0.42969 -0.7276,0.15562 -1.79915,0.37316 -2.38124,0.48341 l -1.05834,0.20049 -0.0725,4.75712 c -1.12435,5.93305 3.58988,5.94996 3.6444,5.94996 3.9063,0.34698 3.70903,1.71534 3.70416,5.09426 0,2.47831 -0.0889,3.41749 -0.33073,3.49497 z"
       id="use90"
       inkscape:transform-center-x="16.528598"
       inkscape:transform-center-y="17.775285"
       inkscape:tile-x0="3.744827e-07"
       inkscape:tile-y0="52.850592"
       sodipodi:nodetypes="cscsscccscssssssscssscccccsssccsscc" /><path
       style="fill:#ffffff;fill-opacity:1"
       d="m 128.83658,255.01305 c -0.14142,-0.12839 -3.22243,-5.12053 -6.8467,-11.09365 l -6.58956,-10.8602 0.46165,-1.1728 c 1.0604,-2.69382 2.1022,-7.58318 2.16048,-10.13922 0.0153,-0.66903 0.055,-1.30087 0.0882,-1.40411 0.18367,-0.56955 -0.2163,-7.27465 -0.46056,-7.72163 -0.0943,-0.17331 -0.13922,-0.57432 -0.0991,-0.89151 0.18878,-1.49392 0.50403,-1.05202 5.39859,7.56719 l 4.79775,8.44874 -0.37334,0.56385 c -1.60895,2.43021 -0.74598,5.70761 1.86216,7.07215 1.85776,0.97196 3.14419,0.7862 5.59306,-0.80765 0.96865,-0.6305 1.68269,-3.22745 1.31468,-4.78166 -0.51973,-2.19495 -3.18961,-3.86569 -5.59719,-3.50259 -1.0011,0.15097 -1.02595,0.13506 -1.46349,-0.93733 -0.2448,-0.59999 -2.78826,-5.14941 -5.65214,-10.10979 l -5.20705,-9.01889 1.37481,-0.79375 c 1.26024,-0.7276 1.39887,-0.75208 1.66345,-0.29384 0.43389,0.75154 3.19958,3.09488 5.64974,4.78695 3.43995,2.37563 6.9351,4.07639 10.75105,5.23157 l 1.57339,0.47625 7.2188,12.63553 7.21879,12.63553 -2.91377,1.76806 c -3.31556,2.01193 -3.96183,2.14424 -4.90269,1.00415 -0.31019,-0.37587 -0.97191,-1.13529 -1.4705,-1.6876 -0.49857,-0.55231 -1.22274,-1.37153 -1.60927,-1.82051 l -0.70279,-0.8163 -4.15604,2.31577 c -5.70035,1.99281 -3.35788,6.08391 -3.33062,6.13112 1.65266,3.55645 0.36899,4.06979 -2.55968,5.75503 -2.14628,1.23915 -3.00408,1.63175 -3.1921,1.46106 z"
       id="use91"
       inkscape:transform-center-x="16.528598"
       inkscape:transform-center-y="17.775285"
       inkscape:tile-x0="3.744827e-07"
       inkscape:tile-y0="52.850592"
       sodipodi:nodetypes="cscsscccscssssssscssscccccsssccsscc" /></g></svg>
